<?xml version="1.0" encoding="utf-8"?>
<!-- Generator: Adobe Illustrator 17.1.0, SVG Export Plug-In . SVG Version: 6.00 Build 0)  -->
<!DOCTYPE svg PUBLIC "-//W3C//DTD SVG 1.1//EN" "http://www.w3.org/Graphics/SVG/1.1/DTD/svg11.dtd">
<svg version="1.1" id="Layer_1" xmlns="http://www.w3.org/2000/svg" xmlns:xlink="http://www.w3.org/1999/xlink" x="0px" y="0px"
	 width="25px" height="25px" viewBox="0 0 25 25" enable-background="new 0 0 25 25" xml:space="preserve">
<polygon fill="#FFFFFF" points="11.1,2.9 5.3,8.7 1.3,8.7 0.3,9.8 0.3,15.6 1.2,16.6 5.3,16.6 11.1,22.5 12.2,22.5 12.2,2.9 "/>
<g>
	<path fill="#FFFFFF" d="M22.3,12.7c0,2.9-1,5.6-2.7,7.8l0.6,0.6c2.4-2,4-5,4-8.4s-1.5-6.4-4-8.4l-0.6,0.6
		C21.3,7,22.3,9.7,22.3,12.7z"/>
</g>
<g>
	<path fill="#FFFFFF" d="M16.7,12.7c0,1.7-0.5,3.3-1.4,4.6l0.7,0.7c1.4-1.4,2.2-3.2,2.2-5.3c0-2.1-0.8-3.9-2.2-5.3l-0.7,0.7
		C16.2,9.4,16.7,11,16.7,12.7z"/>
</g>
<g>
</g>
<g>
</g>
<g>
</g>
<g>
</g>
<g>
</g>
<g>
</g>
<g>
</g>
<g>
</g>
<g>
</g>
<g>
</g>
<g>
</g>
<g>
</g>
<g>
</g>
<g>
</g>
<g>
</g>
</svg>
